<?xml version="1.0" encoding="UTF-8"?>
<svg width="153px" height="79px" viewBox="0 0 153 79" version="1.1" xmlns="http://www.w3.org/2000/svg" xmlns:xlink="http://www.w3.org/1999/xlink">
    <!-- Generator: Sketch 50.2 (55047) - http://www.bohemiancoding.com/sketch -->
    <title>Group 7</title>
    <desc>Created with Sketch.</desc>
    <defs>
        <path d="M11.3728,0.526681922 C11.5405333,0.19798627 11.7622667,0.0337025172 11.9832,0.0337025172 C12.2034667,0.0337025172 12.4250667,0.19798627 12.5941333,0.526681922 L23.8130667,22.3686041 C24.15,23.0248421 23.806,23.5579314 23.0412,23.5579314 L0.924266667,23.5579314 C0.1616,23.5579314 -0.1856,23.0261236 0.152533333,22.3686041 L11.3728,0.526681922 Z" id="path-1"></path>
        <path d="M36.6456889,1.73286486 C37.186163,0.651405405 37.900637,0.110886486 38.6125333,0.110886486 C39.3222815,0.110886486 40.0363259,0.651405405 40.5810963,1.73286486 L76.7309926,73.5961622 C77.8166667,75.7552865 76.7082222,77.5092324 74.2438667,77.5092324 L2.97819259,77.5092324 C0.520711111,77.5092324 -0.598044444,75.7595027 0.491496296,73.5961622 L36.6456889,1.73286486 Z M35.0255556,24.2112 L35.0255556,55.517027 L42.1947852,55.517027 L42.1947852,30.8091568 L35.3928889,24.2112 L35.0255556,24.2112 Z M33.93,64.3124757 C33.93,66.7448108 35.9376593,68.7154703 38.4101778,68.7154703 C40.8848444,68.7154703 42.8925037,66.7448108 42.8925037,64.3124757 C42.8925037,61.8843568 40.8848444,59.9158054 38.4101778,59.9158054 C35.9376593,59.9158054 33.93,61.8843568 33.93,64.3124757 Z" id="path-3"></path>
    </defs>
    <g id="Pago-puntual-e-internacional" stroke="none" stroke-width="1" fill="none" fill-rule="evenodd">
        <g id="01_FeedbackMultifirma" transform="translate(-724.000000, -103.000000)">
            <g id="Group-7" transform="translate(724.000000, 103.000000)">
                <rect id="Rectangle-2" fill="#FFFFFF" x="0" y="0" width="153" height="79"></rect>
                <g id="Group" transform="translate(36.000000, 0.000000)">
                    <g id="Page-1" transform="translate(19.000000, 36.000000)">
                        <path d="M11.3880193,0.915178731 L0.130015894,22.8079063 C-0.209392487,23.4668268 0.138979379,24 0.904353973,24 L23.0959361,24 C23.8631837,24 24.2083448,23.4656708 23.8702742,22.8079063 L12.6134749,0.915178731 C12.4438376,0.585718517 12.2214896,0.421052632 12.0004795,0.421052632 C11.7788005,0.421052632 11.5564525,0.585718517 11.3880193,0.915178731 Z" id="Fill-1" fill="#C49735"></path>
                        <g id="Group-5">
                            <mask id="mask-2" fill="white">
                                <use xlink:href="#path-1"></use>
                            </mask>
                            <g id="Clip-4"></g>
                            <polygon id="Fill-3" fill="#FADE8E" mask="url(#mask-2)" points="-0.533333333 24.0915332 24.4984 24.0915332 24.4984 -0.500668192 -0.533333333 -0.500668192"></polygon>
                        </g>
                        <g id="Group-23" transform="translate(10.472727, 7.578947)">
                            <path d="M1.1271526,12.4176874 C1.1271526,11.6698389 1.75801252,11.0635349 2.53464239,11.0635349 C3.31194712,11.0635349 3.94280705,11.6698389 3.94280705,12.4176874 C3.94280705,13.1668344 3.31194712,13.7737877 2.53464239,13.7737877 C1.75801252,13.7737877 1.1271526,13.1668344 1.1271526,12.4176874" id="Fill-15" fill="#C49735"></path>
                            <polygon id="Fill-17" fill="#C49735" points="1.47137212 0.066590851 1.58677333 0.066590851 3.72365274 2.09872858 3.72365274 9.70875908 1.47137212 9.70875908"></polygon>
                            <path d="M0.131611364,12.4176874 C0.131611364,11.6698389 0.762336317,11.0635349 1.53910116,11.0635349 C2.31640589,11.0635349 2.94726582,11.6698389 2.94726582,12.4176874 C2.94726582,13.1668344 2.31640589,13.7737877 1.53910116,13.7737877 C0.762336317,13.7737877 0.131611364,13.1668344 0.131611364,12.4176874" id="Fill-19" fill="#FFFFFF"></path>
                            <polygon id="Fill-21" fill="#FFFFFF" points="0.475817393 0.066590851 0.591083627 0.066590851 2.72809801 2.09872858 2.72809801 9.70875908 0.475817393 9.70875908"></polygon>
                        </g>
                    </g>
                    <g id="Page-1">
                        <path d="M36.6456459,2.11531784 L0.491882963,73.9786151 C-0.598087407,76.1415341 0.520668148,77.8916854 2.97857926,77.8916854 L74.2442533,77.8916854 C76.7081793,77.8916854 77.8166237,76.1377395 76.7309496,73.9786151 L40.5810533,2.11531784 C40.036283,1.03385838 39.3222385,0.493339459 38.6124904,0.493339459 C37.9005941,0.493339459 37.1865496,1.03385838 36.6456459,2.11531784 Z M35.0255126,24.593653 L35.3928459,24.593653 L42.1951719,31.1916097 L42.1951719,55.89948 L35.0255126,55.89948 L35.0255126,24.593653 Z M33.929957,64.6949286 C33.929957,62.2668097 35.9380459,60.2982584 38.4101348,60.2982584 C40.8848015,60.2982584 42.8924607,62.2668097 42.8924607,64.6949286 C42.8924607,67.1272638 40.8848015,69.0979232 38.4101348,69.0979232 C35.9380459,69.0979232 33.929957,67.1272638 33.929957,64.6949286 Z" id="Fill-1" fill="#E77D8E"></path>
                        <g id="Group-5" transform="translate(0.000000, 0.382411)">
                            <mask id="mask-4" fill="white">
                                <use xlink:href="#path-3"></use>
                            </mask>
                            <g id="Clip-4"></g>
                            <polygon id="Fill-3" fill="#FADE8E" mask="url(#mask-4)" points="-1.71851852 79.2648649 78.9392889 79.2648649 78.9392889 -1.64727568 -1.71851852 -1.64727568"></polygon>
                        </g>
                        <g id="Group-23" transform="translate(33.511111, 24.414843)">
                            <g id="Group-14" transform="translate(8.592593, 9.275676)" fill="#D4EDFC" opacity="0.67">
                                <path d="M72.5966667,9.34111135 C72.5966667,10.1948951 71.9354667,10.8871978 71.1200296,10.8871978 L69.8603556,10.8871978 C69.0449185,10.8871978 68.3837185,10.1948951 68.3837185,9.34111135 L68.3837185,9.07422486 C68.3837185,8.22001946 69.0449185,7.52813838 69.8603556,7.52813838 L71.1200296,7.52813838 C71.9354667,7.52813838 72.5966667,8.22001946 72.5966667,9.07422486 L72.5966667,9.34111135 Z" id="Fill-6"></path>
                                <path d="M72.150883,0.034572973 L0.0912533333,0.034572973 L0.0912533333,3.13517838 L72.150883,3.13517838 C72.9787793,3.13517838 73.6498607,2.53563243 73.6498607,1.66835676 L73.6498607,1.55367568 C73.6498607,0.685978378 72.9787793,0.034572973 72.150883,0.034572973" id="Fill-8"></path>
                                <path d="M64.0940815,7.52809622 L0.108911111,7.64615027 L0.108911111,10.6287016 L64.0940815,10.6287016 C64.9219778,10.6287016 65.4873704,9.97771784 65.4873704,9.11086378 L65.4873704,8.99449622 C65.4873704,8.12722054 64.9219778,7.52809622 64.0940815,7.52809622" id="Fill-10"></path>
                                <path d="M47.9798341,14.7631654 L0.0911674074,14.7302789 L0.0911674074,18.1222249 L47.9798341,18.1222249 C48.8077304,18.1222249 49.4259674,17.4193816 49.4259674,16.5521059 L49.4259674,16.4370032 C49.4259674,15.5697276 48.8077304,14.7631654 47.9798341,14.7631654" id="Fill-12"></path>
                            </g>
                            <path d="M3.58783704,40.3178205 C3.58783704,37.8897016 5.59592593,35.9211503 8.06801481,35.9211503 C10.5422519,35.9211503 12.5503407,37.8897016 12.5503407,40.3178205 C12.5503407,42.7501557 10.5422519,44.7208151 8.06801481,44.7208151 C5.59592593,44.7208151 3.58783704,42.7501557 3.58783704,40.3178205" id="Fill-15" fill="#C49735" opacity="0.5"></path>
                            <polygon id="Fill-17" fill="#C49735" opacity="0.5" points="4.68352148 0.216207568 5.05085481 0.216207568 11.8527511 6.81416432 11.8527511 31.5224562 4.68352148 31.5224562"></polygon>
                            <path d="M0.418931852,40.3178205 C0.418931852,37.8897016 2.42659111,35.9211503 4.89910963,35.9211503 C7.37334667,35.9211503 9.38143556,37.8897016 9.38143556,40.3178205 C9.38143556,42.7501557 7.37334667,44.7208151 4.89910963,44.7208151 C2.42659111,44.7208151 0.418931852,42.7501557 0.418931852,40.3178205" id="Fill-19" fill="#FFFFFF"></path>
                            <polygon id="Fill-21" fill="#FFFFFF" points="1.51457333 0.216207568 1.88147704 0.216207568 8.68380296 6.81416432 8.68380296 31.5224562 1.51457333 31.5224562"></polygon>
                        </g>
                    </g>
                </g>
            </g>
        </g>
    </g>
</svg>