<svg id="BANCOS" xmlns="http://www.w3.org/2000/svg" viewBox="0 0 32 32"><title>BBVAESMMXXX</title><g id="BBVAESMMXXX"><path d="M21.81,20.85,5.83,5A15,15,0,0,0,7.13,28.09l14.65-7.22,0,0Z" style="fill:#1765a0"/><path d="M16,1A14.93,14.93,0,0,0,5.83,5l16,15.86h0l5-2.47,4.15-2v0c0-.12,0-.23,0-.35A15,15,0,0,0,16,1Z" style="fill:#0c457f"/><path d="M21.82,20.86l0,0L7.13,28.09a15,15,0,0,0,19.94-2l0,0Z" style="fill:#1f355c"/><path d="M21.82,20.86l5.27,5.23A14.92,14.92,0,0,0,31,16.36l-4.15,2Z" style="fill:#1b2542"/><g id="Logo_BBVA" data-name="Logo BBVA"><path id="Fill-7" d="M13.35,15.54l.58-.81a.87.87,0,0,0,.12-.46.79.79,0,0,0-.81-.81h-.81v5h.46a1.31,1.31,0,0,0,1.38-1.5,1.39,1.39,0,0,0-.92-1.38m.35,3.81H10.81V12.65h2.88a1.32,1.32,0,0,1,1.15,2.19l-.35.46c2.42,1.15,1.62,4-.81,4" style="fill:#f9f9f9"/><path id="Fill-9" d="M7.69,15.54l.58-.81a.87.87,0,0,0,.12-.46.79.79,0,0,0-.81-.81H6.77v5h.46a1.31,1.31,0,0,0,1.38-1.5,1.39,1.39,0,0,0-.92-1.38M8,19.35H5.15V12.65H8a1.32,1.32,0,0,1,1.15,2.19l-.35.46c2.42,1.15,1.62,4-.81,4" style="fill:#f9f9f9"/><path id="Fill-11" d="M20.38,12.65h1l-2.08,6.69H17.73l-2.19-6.69h1.15c.46,0,.58.12.81.92l1.27,4.27Z" style="fill:#f9f9f9"/><path id="Fill-13" d="M22.46,16.92l.92-3.12.92,3.12Zm2.31-3.58c-.23-.58-.35-.69-.81-.69H22.69l-2.08,6.69h1l.46-1.5h2.42l.46,1.5h1.85Z" style="fill:#f9f9f9"/></g></g></svg>