<?xml version="1.0" encoding="UTF-8"?>
<svg width="241px" height="112px" viewBox="0 0 241 112" version="1.1" xmlns="http://www.w3.org/2000/svg" xmlns:xlink="http://www.w3.org/1999/xlink">
    <!-- Generator: Sketch 47 (45396) - http://www.bohemiancoding.com/sketch -->
    <title>Group 12</title>
    <desc>Created with Sketch.</desc>
    <defs>
        <polygon id="path-1" points="111.009294 0 0 2.34809303e-14 0 19.9606472 111.009294 19.9606472 111.009294 0"></polygon>
        <polygon id="path-3" points="0 19.9608124 111.009294 19.9608124 111.009294 1.12265752e-12 0 1.12265752e-12"></polygon>
        <path d="M0.3045,42.6442368 C-0.0457894737,66.0678421 18.6569211,85.3452105 42.0828158,85.6955 C65.5064211,86.0480789 84.7837895,67.3430789 85.1363684,43.9171842 C85.4889474,20.4935789 66.7816579,1.21621053 43.3580526,0.863631579 C43.1428421,0.861342105 42.9207632,0.861342105 42.7078421,0.861342105 C19.5727105,0.859052632 0.654789474,19.4335526 0.3045,42.6442368 Z" id="path-5"></path>
        <path d="M0.3045,42.6442368 C-0.0457894737,66.0678421 18.6569211,85.3452105 42.0828158,85.6955 C65.5064211,86.0480789 84.7837895,67.3430789 85.1363684,43.9171842 C85.4889474,20.4935789 66.7816579,1.21621053 43.3580526,0.863631579 C43.1428421,0.861342105 42.9207632,0.861342105 42.7078421,0.861342105 C19.5727105,0.859052632 0.654789474,19.4335526 0.3045,42.6442368 Z" id="path-7"></path>
        <polygon id="path-9" points="16.4964 13.2029333 3.68973333 0.348666667 0.629733333 3.386 13.4681333 16.2425333 10.3968 19.3229333 0.629733333 29.0446667 3.68973333 32.082 9.53093333 26.2204 16.4964 19.2776 23.4664 26.2566667 29.3053333 32.082 32.3653333 29.0446667 22.596 19.3229333 19.5269333 16.2425333 32.3653333 3.386 29.3053333 0.348666667"></polygon>
    </defs>
    <g id="Desktop-1280" stroke="none" stroke-width="1" fill="none" fill-rule="evenodd">
        <g id="04_Onboarding_01Alta-step-1c" transform="translate(-518.000000, -166.000000)">
            <g id="Group-11">
                <g id="Group-12" transform="translate(518.000000, 166.000000)">
                    <g id="Page-1-Copy">
                        <g id="Group-9" transform="translate(0.000000, 0.240826)">
                            <g id="Group-3" transform="translate(111.944923, 0.000000)">
                                <mask id="mask-2" fill="white">
                                    <use xlink:href="#path-1"></use>
                                </mask>
                                <g id="Clip-2"></g>
                                <path d="M111.009294,10.0506713 C111.009294,15.5239931 106.572392,19.960895 101.099071,19.960895 L9.90981067,19.960895 C4.43648881,19.960895 0,15.5239931 0,10.0506713 L0,9.91063683 C0,4.43690189 4.43648881,0 9.90981067,0 L101.099071,0 C106.572392,0 111.009294,4.43690189 111.009294,9.91063683 L111.009294,10.0506713 Z" id="Fill-1" fill-opacity="0.431216033" fill="#FCDFDF" mask="url(#mask-2)"></path>
                            </g>
                            <path d="M201.756558,65.170327 L168.809639,65.170327 C166.449707,63.0689845 165.172048,60.3075387 165.172048,57.1594492 L165.172048,57.1590361 C165.172048,53.7928399 166.692599,50.8124613 169.337969,49.0614114 L183.320344,49.0614114 C189.060516,49.0614114 193.887367,44.5675043 193.887367,39.0285026 L193.887367,37.028778 C193.887367,31.4897762 189.060516,27 183.320344,27 L69.7809294,27 C64.0411704,27 59.4154905,31.4897762 59.4154905,37.028778 L59.4154905,39.0285026 C59.4154905,44.5675043 64.0411704,49.0614114 69.7809294,49.0614114 L71.2886747,49.0614114 C74.1471945,50.8124613 75.8742857,54.012599 75.8742857,57.5671601 L75.8742857,57.5679862 C75.8742857,60.543821 74.7139415,63.4192771 72.6059897,65.170327 L40.6215491,65.170327 C34.7776936,65.170327 30,69.6956282 30,75.3350086 L30,75.3366609 C30,80.9760413 34.7776936,85.8313941 40.6215491,85.8313941 L201.756558,85.8313941 C207.6,85.8313941 212.447504,80.9760413 212.447504,75.3366609 L212.447504,75.3350086 C212.447504,69.6956282 207.6,65.170327 201.756558,65.170327" id="Fill-4" fill-opacity="0.431216033" fill="#FCDFDF"></path>
                            <g id="Group-8" transform="translate(0.000000, 91.290878)">
                                <mask id="mask-4" fill="white">
                                    <use xlink:href="#path-3"></use>
                                </mask>
                                <g id="Clip-7"></g>
                                <path d="M111.009294,10.0506713 C111.009294,15.5239931 106.572392,19.960895 101.099071,19.960895 L9.91022375,19.960895 C4.43648881,19.960895 0,15.5239931 0,10.0506713 L0,9.91022375 C0,4.43690189 4.43648881,1.12265752e-12 9.91022375,1.12265752e-12 L101.099071,1.12265752e-12 C106.572392,1.12265752e-12 111.009294,4.43690189 111.009294,9.91022375 L111.009294,10.0506713 Z" id="Fill-6" fill-opacity="0.431216033" fill="#FCDFDF" mask="url(#mask-4)"></path>
                            </g>
                        </g>
                        <polygon id="Fill-10" fill="#DA3851" opacity="0.4" points="236.542926 41.5425129 234 42.3587608 236.542926 43.1762478 237.359587 45.7195869 238.177074 43.1762478 240.72 42.3587608 238.177074 41.5425129 237.359587 39"></polygon>
                        <polygon id="Fill-11" fill="#DA3851" opacity="0.4" points="229.177074 98.5420998 231.719587 99.3587608 229.177074 100.176248 228.359587 102.719174 227.542513 100.176248 225 99.3587608 227.542513 98.5420998 228.359587 96"></polygon>
                        <polygon id="Fill-12" fill="#DA3851" opacity="0.482393569" points="196.177074 8.54251291 198.719587 9.35876076 196.177074 10.1762478 195.359587 12.7195869 194.542926 10.1762478 192 9.35876076 194.542926 8.54251291 195.359587 6"></polygon>
                        <polygon id="Fill-13" fill="#DA3851" opacity="0.4" points="14.6317384 67.6019277 16.233253 68.1158003 14.6317384 68.6309122 14.1162134 70.2336661 13.6019277 68.6309122 12 68.1158003 13.6019277 67.6019277 14.1162134 66"></polygon>
                        <polygon id="Fill-14" fill="#DA3851" opacity="0.4" points="233.631738 34.6019277 235.233253 35.1153873 233.631738 35.6313253 233.116213 37.2336661 232.601928 35.6313253 231 35.1153873 232.601928 34.6019277 233.116213 33"></polygon>
                        <polygon id="Fill-15" fill="#2DCCCD" opacity="0.4" points="80.6300861 1.60275387 82.2316007 2.11621343 80.6300861 2.63173838 80.1153873 4.23407917 79.6011015 2.63173838 78 2.11621343 79.6011015 1.60275387 80.1153873 0"></polygon>
                    </g>
                    <g id="Page-1" transform="translate(79.000000, 16.000000)">
                        <g id="Group-3" transform="translate(1.000000, 2.000000)">
                            <mask id="mask-6" fill="white">
                                <use xlink:href="#path-5"></use>
                            </mask>
                            <g id="Clip-2"></g>
                            <polygon id="Fill-1" fill="#CB353A" mask="url(#mask-6)" points="-13.7368421 99.7368421 99.1777105 99.7368421 99.1777105 -13.1754211 -13.7368421 -13.1754211"></polygon>
                        </g>
                        <g id="Group-3">
                            <mask id="mask-8" fill="white">
                                <use xlink:href="#path-7"></use>
                            </mask>
                            <g id="Clip-2"></g>
                            <polygon id="Fill-1" fill="#F59799" mask="url(#mask-8)" points="-13.7368421 99.7368421 99.1777105 99.7368421 99.1777105 -13.1754211 -13.7368421 -13.1754211"></polygon>
                        </g>
                        <g id="Group-6" transform="translate(26.000000, 27.000000)">
                            <mask id="mask-10" fill="white">
                                <use xlink:href="#path-9"></use>
                            </mask>
                            <g id="Clip-5"></g>
                            <polygon id="Fill-4" fill="#FFFFFF" mask="url(#mask-10)" points="-10.7036 43.4153333 43.6964 43.4153333 43.6964 -10.9846667 -10.7036 -10.9846667"></polygon>
                        </g>
                    </g>
                </g>
            </g>
        </g>
    </g>
</svg>