<svg xmlns="http://www.w3.org/2000/svg" viewBox="0 0 32 32"><title>DUMMYMMMXXX</title><g style="isolation:isolate"><g id="BANCOS"><g id="DUMMYMMMXXX"><circle cx="16" cy="16" r="15" style="fill:#028484"/><path d="M2.35,9.79a14.93,14.93,0,0,0-1,9.44L16.15,15Z" style="fill:#028484"/><path d="M2.35,9.79a14.93,14.93,0,0,0-1,9.44L16.15,15Z" style="fill:#028484;opacity:0.1;mix-blend-mode:multiply"/><path d="M1.36,19.23a14.93,14.93,0,0,0,4.2,7.54l22.73-2.16a14.9,14.9,0,0,0,2.05-4.19L16.15,15Z" style="fill:#028484"/><path d="M1.36,19.23a14.93,14.93,0,0,0,4.2,7.54l22.73-2.16a14.9,14.9,0,0,0,2.05-4.19L16.15,15Z" style="fill:#028484;opacity:0.1;mix-blend-mode:multiply"/><path d="M1.36,19.23a14.93,14.93,0,0,0,4.2,7.54l22.73-2.16a14.9,14.9,0,0,0,2.05-4.19L16.15,15Z" style="fill:#028484;opacity:0.1;mix-blend-mode:multiply"/><path d="M5.55,26.77a15,15,0,0,0,22.73-2.16Z" style="fill:#028484"/><path d="M5.55,26.77a15,15,0,0,0,22.73-2.16Z" style="fill:#028484;opacity:0.1;mix-blend-mode:multiply"/><path d="M5.55,26.77a15,15,0,0,0,22.73-2.16Z" style="fill:#028484;opacity:0.1;mix-blend-mode:multiply"/><path d="M5.55,26.77a15,15,0,0,0,22.73-2.16Z" style="fill:#028484;opacity:0.1;mix-blend-mode:multiply"/><path d="M30.34,20.42a15,15,0,0,0-.19-9.37l-14,4Z" style="fill:#028484"/><path d="M30.34,20.42a15,15,0,0,0-.19-9.37l-14,4Z" style="fill:#028484;opacity:0.1;mix-blend-mode:multiply"/><path id="Logo" d="M9.65,22.35V21.19H22.35v1.15ZM16,9.08l6.35,3.46v1.15H9.65V12.54ZM10.81,20V14.85h2.31V20Zm4,0V14.85h2.31V20Zm4,0V14.85h2.31V20Z" style="fill:#fff"/></g></g></g></svg>