<?xml version="1.0" encoding="UTF-8"?>
<svg width="232px" height="120px" viewBox="0 0 232 120" version="1.1" xmlns="http://www.w3.org/2000/svg" xmlns:xlink="http://www.w3.org/1999/xlink">
    <!-- Generator: Sketch 50.2 (55047) - http://www.bohemiancoding.com/sketch -->
    <title>success-micro</title>
    <desc>Created with Sketch.</desc>
    <defs>
        <polyline id="path-1" points="23.8493178 44.6282927 7.32991681 28.1004878 0.0878535774 35.5697561 23.9576705 59.4556098 75.032812 7.61268293 67.6794676 0.251707317 23.8493178 44.6282927"></polyline>
        <polyline id="path-3" points="23.9840266 44.4702439 7.46755408 27.942439 0.225490849 35.4117073 24.0923794 59.3004878 75.1704493 7.45170732 67.8141764 0.0936585366 23.9840266 44.4702439"></polyline>
    </defs>
    <g id="success-micro" stroke="none" stroke-width="1" fill="none" fill-rule="evenodd">
        <g id="Alerts/Artboard-42" transform="translate(56.000000, 0.000000)">
            <g>
                <path d="M119.955275,60 C119.955275,93.1082927 93.1013644,119.94439 59.9776373,119.94439 C26.8539101,119.94439 0,93.1082927 0,60 C0,26.8917073 26.8509817,0.0556097561 59.9776373,0.0556097561 C93.1042928,0.0556097561 119.955275,26.8917073 119.955275,60" id="Shape" fill="#48AE64" fill-rule="nonzero"></path>
                <path d="M171.900166,62.4117073 L169.996672,62.4117073 C168.725855,62.454642 167.72993,63.5181191 167.771048,64.7882927 L167.771048,65.1980488 C167.72993,66.4682224 168.725855,67.5316995 169.996672,67.5746341 L171.900166,67.5746341 C173.171421,67.5316873 174.168185,66.4687121 174.128719,65.1980488 L174.128719,64.7882927 C174.168185,63.5176294 173.171421,62.4546542 171.900166,62.4117073" id="Shape" fill="#E5D3A2" fill-rule="nonzero"></path>
                <path d="M173.446389,50.8946341 L119.270017,50.8946341 C119.51015,52.4673171 119.687809,54.0556098 119.802995,55.6595122 L173.446389,55.6595122 C174.049788,55.6757351 174.6334,55.4437063 175.060776,55.0176746 C175.488151,54.5916428 175.721821,54.0089584 175.707155,53.4058537 L175.707155,53.2302439 C175.726122,52.6178288 175.496713,52.0237334 175.071011,51.5828361 C174.645309,51.1419389 174.059431,50.8916455 173.446389,50.8887805" id="Shape" fill="#E5D3A2" fill-rule="nonzero"></path>
                <path d="M119.267088,50.8946341 L88.4392679,50.8946341 L83.7537438,55.6595122 L119.802995,55.6595122 C119.689762,54.0517073 119.512102,52.4634146 119.270017,50.8946341" id="Shape" fill="#A9B96F" fill-rule="nonzero"></path>
                <path d="M161.287454,62.4117073 L119.908419,62.4117073 C119.843993,64.0195122 119.71807,65.6078049 119.530649,67.1765854 L161.287454,67.1765854 C162.537903,67.1765854 163.390083,66.1785366 163.390083,64.835122 L163.390083,64.6565854 C163.390083,63.3219512 162.537903,62.4029268 161.287454,62.4029268" id="Shape" fill="#E5D3A2" fill-rule="nonzero"></path>
                <path d="M119.908419,62.4117073 L77.1002995,62.4117073 L72.4147754,67.1765854 L119.530649,67.1765854 C119.725879,65.6039024 119.851803,64.0156098 119.908419,62.4117073" id="Shape" fill="#A9B96F" fill-rule="nonzero"></path>
                <path d="M136.972512,73.5307317 L118.420765,73.5307317 C118.016639,75.2868293 117.537349,77.0078049 116.982895,78.6936585 L136.972512,78.6936585 C138.220033,78.6936585 139.15421,77.6136585 139.15421,76.2819512 L139.15421,76.097561 C139.15421,74.7629268 138.220033,73.524878 136.972512,73.524878" id="Shape" fill="#E5D3A2" fill-rule="nonzero"></path>
                <path d="M118.420765,73.5307317 L66.1449584,73.5307317 L61.0611647,78.6936585 L116.994609,78.6936585 C117.54711,77.0058537 118.0264,75.284878 118.432479,73.5307317" id="Shape" fill="#A9B96F" fill-rule="nonzero"></path>
                <g id="Clipped" transform="translate(26.356073, 30.146341)">
                    <mask id="mask-2" fill="white">
                        <use xlink:href="#path-1"></use>
                    </mask>
                    <g id="Shape"></g>
                    <g id="Group" mask="url(#mask-2)" fill-rule="nonzero">
                        <polyline id="Shape" fill="#36914F" points="67.6794676 0.251707317 23.8493178 44.6282927 7.32991681 28.1004878 0.0878535774 35.5697561 23.9576705 59.4556098 34.7050915 48.5473171 25.383827 48.5473171 30.3358403 43.3843902 39.7918136 43.3843902 46.0499168 37.0302439 36.4299501 37.0302439 41.004193 32.2653659 50.7442263 32.2653659 57.3947421 25.5131707 47.4790017 25.5131707 52.0503161 20.7482927 62.0890516 20.7482927 75.032812 7.61268293 67.6794676 0.251707317"></polyline>
                        <polyline id="Shape" fill="#629654" points="62.0890516 20.7482927 52.0503161 20.7482927 47.4790017 25.5131707 57.3947421 25.5131707 62.0890516 20.7482927"></polyline>
                        <polyline id="Shape" fill="#629654" points="50.7442263 32.2653659 41.004193 32.2653659 36.4299501 37.0302439 46.0499168 37.0302439 50.7442263 32.2653659"></polyline>
                        <polyline id="Shape" fill="#629654" points="39.7918136 43.3843902 30.3358403 43.3843902 25.383827 48.5473171 34.7050915 48.5473171 39.7918136 43.3843902"></polyline>
                    </g>
                </g>
                <polygon id="Shape" fill="#FFFFFF" fill-rule="nonzero" points="45.947421 70.5190244 29.4309484 53.9912195 22.1888852 61.4634146 46.0587022 85.3463415 97.1309151 33.5034146 89.7775707 26.142439"></polygon>
                <g id="Clipped" transform="translate(21.963394, 26.048780)">
                    <mask id="mask-4" fill="white">
                        <use xlink:href="#path-3"></use>
                    </mask>
                    <g id="Shape"></g>
                    <rect id="Rectangle-path" fill="#FFFFFF" fill-rule="nonzero" mask="url(#mask-4)" x="-2.02063228" y="-2.14829268" width="79.4313478" height="63.6878049"></rect>
                </g>
            </g>
        </g>
    </g>
</svg>