<?xml version="1.0" encoding="UTF-8"?>
<svg width="232px" height="120px" viewBox="0 0 232 120" version="1.1" xmlns="http://www.w3.org/2000/svg" xmlns:xlink="http://www.w3.org/1999/xlink">
    <!-- Generator: Sketch 50.2 (55047) - http://www.bohemiancoding.com/sketch -->
    <title>warning-micro</title>
    <desc>Created with Sketch.</desc>
    <defs>
        <path d="M51.4236273,99.4507317 C51.426862,95.6928841 54.4772251,92.6490161 58.2371573,92.6517097 C61.9970896,92.6544033 65.0430836,95.7026386 65.0409281,99.460487 C65.0387727,103.218335 61.9892839,106.263078 58.2293511,106.261463 C56.4228377,106.261465 54.6904425,105.543628 53.4138689,104.266115 C52.1372952,102.988602 51.4212953,101.256242 51.4236273,99.4507317 M53.0869884,37.4165854 L53.6463228,37.4165854 L63.9779035,47.6253659 L63.9779035,85.8439024 L53.0869884,85.8439024 L53.0869884,37.4165854 M55.549817,2.63414634 L0.632545757,113.812683 C-1.0191015,117.158049 0.679400998,119.862439 4.41024958,119.862439 L112.657571,119.862439 C116.400133,119.862439 118.083993,117.152195 116.435275,113.812683 L61.5267887,2.63414634 C60.6980366,0.96 59.6145092,0.125853659 58.5368386,0.125853659 C57.4591681,0.125853659 56.3697837,0.96 55.549817,2.63414634" id="path-1"></path>
    </defs>
    <g id="warning-micro" stroke="none" stroke-width="1" fill="none" fill-rule="evenodd">
        <g id="Alerts/Artboard-41" transform="translate(56.000000, 0.000000)">
            <path d="M51.4236273,99.4507317 C51.426862,95.6928841 54.4772251,92.6490161 58.2371573,92.6517097 C61.9970896,92.6544033 65.0430836,95.7026386 65.0409281,99.460487 C65.0387727,103.218335 61.9892839,106.263078 58.2293511,106.261463 C56.4228377,106.261465 54.6904425,105.543628 53.4138689,104.266115 C52.1372952,102.988602 51.4212953,101.256242 51.4236273,99.4507317 M53.0869884,37.4165854 L53.6463228,37.4165854 L63.9779035,47.6253659 L63.9779035,85.8439024 L53.0869884,85.8439024 L53.0869884,37.4165854 M55.549817,2.63414634 L0.632545757,113.812683 C-1.0191015,117.158049 0.679400998,119.862439 4.41024958,119.862439 L112.657571,119.862439 C116.400133,119.862439 118.083993,117.152195 116.435275,113.812683 L61.5267887,2.63414634 C60.6980366,0.96 59.6145092,0.125853659 58.5368386,0.125853659 C57.4591681,0.125853659 56.3697837,0.96 55.549817,2.63414634" id="Shape" fill="#E77D8E" fill-rule="nonzero"></path>
            <g id="Clipped">
                <mask id="mask-2" fill="white">
                    <use xlink:href="#path-1"></use>
                </mask>
                <g id="Shape"></g>
                <polyline id="Shape" fill="#E77D8E" fill-rule="nonzero" mask="url(#mask-2)" points="-2.7234609 -2.58146341 119.788353 -2.58146341 119.788353 122.581463 -2.7234609 122.581463 -2.7234609 -2.58146341"></polyline>
            </g>
            <path d="M171.865025,63.1346341 L169.949817,63.1346341 C168.670477,63.1775853 167.66716,64.2471101 167.706622,65.5258537 L167.706622,65.9385366 C167.665526,67.2178962 168.669757,68.2883944 169.949817,68.3297561 L171.865025,68.3297561 C172.479487,68.3099022 173.060848,68.0467327 173.481049,67.5982178 C173.90125,67.1497028 174.12582,66.5526358 174.105291,65.9385366 L174.105291,65.5258537 C174.146405,64.2475997 173.143927,63.1775732 171.865025,63.1346341" id="Shape" fill="#E2F3FD" fill-rule="nonzero"></path>
            <path d="M173.428819,51.5443902 L85.6777371,51.5443902 L88.0468552,56.3385366 L173.428819,56.3385366 C174.036602,56.355572 174.624708,56.1223611 175.055474,55.6934937 C175.486241,55.2646264 175.721851,54.6777514 175.707155,54.0702439 L175.707155,53.8917073 C175.722116,53.2774045 175.488982,52.6829513 175.060337,52.24243 C174.631693,51.8019087 174.04364,51.5524223 173.428819,51.5502439" id="Shape" fill="#E2F3FD" fill-rule="nonzero"></path>
            <polyline id="Shape" fill="#DAC8D8" fill-rule="nonzero" points="85.6777371 51.5443902 68.7922795 51.5443902 68.7922795 56.3385366 88.0468552 56.3385366 85.6777371 51.5443902"></polyline>
            <path d="M161.193744,63.1346341 L91.4672879,63.2663415 L93.77198,67.9317073 L161.193744,67.9317073 C162.45005,67.9317073 163.308087,66.9219512 163.308087,65.5902439 L163.308087,65.4117073 C163.308087,64.0712195 162.45005,63.1434146 161.193744,63.1434146" id="Shape" fill="#E2F3FD" fill-rule="nonzero"></path>
            <polyline id="Shape" fill="#DAC8D8" fill-rule="nonzero" points="91.4672879 63.2663415 68.7922795 63.3073171 68.7922795 67.9317073 93.77198 67.9317073 91.4672879 63.2663415"></polyline>
            <path d="M96.9317804,74.3004878 L99.5117471,79.5219512 L136.714809,79.5219512 C137.974043,79.5219512 138.911148,78.4360976 138.911148,77.0956098 L138.911148,76.9170732 C138.911148,75.5736585 137.974043,74.3268293 136.714809,74.3268293 L96.9317804,74.3004878" id="Shape" fill="#E2F3FD" fill-rule="nonzero"></path>
            <polyline id="Shape" fill="#DAC8D8" fill-rule="nonzero" points="68.7922795 74.28 68.7922795 79.5219512 99.4971048 79.5219512 96.9171381 74.3004878 68.7922795 74.28"></polyline>
            <path d="M60.7156073,93.1170732 C58.0564877,94.0878546 56.2748489,96.6006711 56.2397166,99.4298518 C56.2045843,102.259033 57.9232766,104.815267 60.5574709,105.851707 C63.2192044,104.883392 65.0035482,102.369785 65.0387004,99.5389949 C65.0738527,96.7082047 63.3524759,94.1511127 60.7156073,93.1170732" id="Shape" fill="#CC8A94" fill-rule="nonzero"></path>
            <path d="M63.0437271,92.7073171 C62.2497339,92.7073632 61.4618518,92.8460328 60.7156073,93.1170732 C63.322492,94.1390523 65.0374668,96.6520255 65.0380033,99.4507317 C65.0380565,102.3132 63.2480068,104.8705 60.5574709,105.851707 C63.1057254,106.8453 66.0015193,106.218309 67.909878,104.259781 C69.8182367,102.301252 70.3686217,99.391466 69.3073028,96.8718467 C68.245984,94.3522274 65.7790335,92.712 63.0437271,92.7073171" id="Shape" fill="#C24F62" fill-rule="nonzero"></path>
            <polyline id="Shape" fill="#CC8A94" fill-rule="nonzero" points="57.9013644 41.622439 57.9013644 85.8439024 63.9779035 85.8439024 63.9779035 47.6253659 57.9013644 41.622439"></polyline>
            <polyline id="Shape" fill="#C24F62" fill-rule="nonzero" points="58.4606988 37.475122 57.9013644 37.475122 57.9013644 41.622439 63.9779035 47.6253659 63.9779035 85.8439024 57.9013644 85.8439024 57.9013644 85.902439 68.7922795 85.902439 68.7922795 79.5219512 63.9779035 79.5219512 63.9779035 74.2770732 68.7922795 74.28 68.7922795 67.9317073 64.0042596 67.9317073 64.0042596 63.3160976 68.7922795 63.3073171 68.7922795 56.3385366 63.9779035 56.3385366 63.9779035 51.5443902 68.7922795 51.5443902 68.7922795 47.6809756 58.4606988 37.475122"></polyline>
            <polyline id="Shape" fill="#BC7183" fill-rule="nonzero" points="68.7922795 51.5443902 63.9779035 51.5443902 63.9779035 56.3385366 68.7922795 56.3385366 68.7922795 51.5443902"></polyline>
            <polyline id="Shape" fill="#BC7183" fill-rule="nonzero" points="68.7922795 63.3073171 64.0042596 63.3160976 64.0042596 67.9317073 68.7922795 67.9317073 68.7922795 63.3073171"></polyline>
            <polyline id="Shape" fill="#BC7183" fill-rule="nonzero" points="63.9779035 74.2770732 63.9779035 79.5219512 68.7922795 79.5219512 68.7922795 74.28 63.9779035 74.2770732"></polyline>
            <path d="M51.4236273,99.5121951 C51.426862,95.7543475 54.4772251,92.7104795 58.2371573,92.7131731 C61.9970896,92.7158667 65.0430836,95.764102 65.0409281,99.5219504 C65.0387727,103.279799 61.9892839,106.324542 58.2293511,106.322927 C56.4230765,106.322151 54.6911335,105.604064 53.4147284,104.32672 C52.1383234,103.049376 51.4220733,101.317468 51.4236273,99.5121951" id="Shape" fill="#FFFFFF" fill-rule="nonzero"></path>
            <polygon id="Shape" fill="#FFFFFF" fill-rule="nonzero" points="53.0869884 37.475122 53.6463228 37.475122 63.9779035 47.6809756 63.9779035 85.902439 53.0869884 85.902439"></polygon>
        </g>
    </g>
</svg>